<svg width="1512" height="372" viewBox="0 0 1512 372" fill="none" xmlns="http://www.w3.org/2000/svg">
<g clip-path="url(#clip0_10_51)">
<rect width="1512" height="372" fill="#C7DDED"/>
<path d="M279.938 233.496C280.211 232.426 279.566 231.336 278.496 231.062L261.057 226.601C259.987 226.328 258.898 226.973 258.624 228.043C258.35 229.113 258.996 230.203 260.066 230.477L275.567 234.442L271.601 249.943C271.328 251.013 271.973 252.102 273.043 252.376C274.113 252.65 275.203 252.004 275.477 250.934L279.938 233.496ZM-71.9804 442.721L279.02 234.721L276.98 231.279L-74.0196 439.279L-71.9804 442.721Z" fill="#1C3D5B"/>
<path d="M279.938 193.496C280.211 192.426 279.566 191.336 278.496 191.062L261.057 186.601C259.987 186.328 258.898 186.973 258.624 188.043C258.35 189.113 258.996 190.203 260.066 190.477L275.567 194.442L271.601 209.943C271.328 211.013 271.973 212.102 273.043 212.376C274.113 212.65 275.203 212.004 275.477 210.934L279.938 193.496ZM-71.9804 402.721L279.02 194.721L276.98 191.279L-74.0196 399.279L-71.9804 402.721Z" fill="#1C3D5B"/>
<path d="M300.938 139.496C301.211 138.426 300.566 137.336 299.496 137.062L282.057 132.601C280.987 132.328 279.898 132.973 279.624 134.043C279.35 135.113 279.996 136.203 281.066 136.477L296.567 140.442L292.601 155.943C292.328 157.013 292.973 158.102 294.043 158.376C295.113 158.65 296.203 158.004 296.477 156.934L300.938 139.496ZM-50.9804 348.721L300.02 140.721L297.98 137.279L-53.0196 345.279L-50.9804 348.721Z" fill="#1C3D5B"/>
<path d="M239.938 139.496C240.211 138.426 239.566 137.336 238.496 137.062L221.057 132.601C219.987 132.328 218.898 132.973 218.624 134.043C218.35 135.113 218.996 136.203 220.066 136.477L235.567 140.442L231.601 155.943C231.328 157.013 231.973 158.102 233.043 158.376C234.113 158.65 235.203 158.004 235.477 156.934L239.938 139.496ZM-111.98 348.721L239.02 140.721L236.98 137.279L-114.02 345.279L-111.98 348.721Z" fill="#1C3D5B"/>
<path d="M178.938 139.496C179.211 138.426 178.566 137.336 177.496 137.062L160.057 132.601C158.987 132.328 157.898 132.973 157.624 134.043C157.35 135.113 157.996 136.203 159.066 136.477L174.567 140.442L170.601 155.943C170.328 157.013 170.973 158.102 172.043 158.376C173.113 158.65 174.203 158.004 174.477 156.934L178.938 139.496ZM-172.98 348.721L178.02 140.721L175.98 137.279L-175.02 345.279L-172.98 348.721Z" fill="#1C3D5B"/>
<path d="M136.938 121.496C137.211 120.426 136.566 119.336 135.496 119.062L118.057 114.601C116.987 114.328 115.898 114.973 115.624 116.043C115.35 117.113 115.996 118.203 117.066 118.477L132.567 122.442L128.601 137.943C128.328 139.013 128.973 140.102 130.043 140.376C131.113 140.65 132.203 140.004 132.477 138.934L136.938 121.496ZM-214.98 330.721L136.02 122.721L133.98 119.279L-217.02 327.279L-214.98 330.721Z" fill="#1C3D5B"/>
<path d="M136.938 84.4957C137.211 83.4256 136.566 82.3361 135.496 82.0624L118.057 77.6014C116.987 77.3276 115.898 77.9732 115.624 79.0433C115.35 80.1134 115.996 81.2029 117.066 81.4766L132.567 85.4419L128.601 100.943C128.328 102.013 128.973 103.102 130.043 103.376C131.113 103.65 132.203 103.004 132.477 101.934L136.938 84.4957ZM-214.98 293.721L136.02 85.7206L133.98 82.2794L-217.02 290.279L-214.98 293.721Z" fill="#1C3D5B"/>
<path d="M1281.06 113.504C1280.79 114.574 1281.43 115.664 1282.5 115.938L1299.94 120.399C1301.01 120.672 1302.1 120.027 1302.38 118.957C1302.65 117.887 1302 116.797 1300.93 116.523L1285.43 112.558L1289.4 97.0572C1289.67 95.9871 1289.03 94.8977 1287.96 94.6239C1286.89 94.3502 1285.8 94.9958 1285.52 96.0659L1281.06 113.504ZM1632.98 -95.7206L1281.98 112.279L1284.02 115.721L1635.02 -92.2794L1632.98 -95.7206Z" fill="#1C3D5B"/>
<path d="M1281.06 153.504C1280.79 154.574 1281.43 155.664 1282.5 155.938L1299.94 160.399C1301.01 160.672 1302.1 160.027 1302.38 158.957C1302.65 157.887 1302 156.797 1300.93 156.523L1285.43 152.558L1289.4 137.057C1289.67 135.987 1289.03 134.898 1287.96 134.624C1286.89 134.35 1285.8 134.996 1285.52 136.066L1281.06 153.504ZM1632.98 -55.7206L1281.98 152.279L1284.02 155.721L1635.02 -52.2794L1632.98 -55.7206Z" fill="#1C3D5B"/>
<path d="M1260.06 207.504C1259.79 208.574 1260.43 209.664 1261.5 209.938L1278.94 214.399C1280.01 214.672 1281.1 214.027 1281.38 212.957C1281.65 211.887 1281 210.797 1279.93 210.523L1264.43 206.558L1268.4 191.057C1268.67 189.987 1268.03 188.898 1266.96 188.624C1265.89 188.35 1264.8 188.996 1264.52 190.066L1260.06 207.504ZM1611.98 -1.72058L1260.98 206.279L1263.02 209.721L1614.02 1.72058L1611.98 -1.72058Z" fill="#1C3D5B"/>
<path d="M1321.06 207.504C1320.79 208.574 1321.43 209.664 1322.5 209.938L1339.94 214.399C1341.01 214.672 1342.1 214.027 1342.38 212.957C1342.65 211.887 1342 210.797 1340.93 210.523L1325.43 206.558L1329.4 191.057C1329.67 189.987 1329.03 188.898 1327.96 188.624C1326.89 188.35 1325.8 188.996 1325.52 190.066L1321.06 207.504ZM1672.98 -1.72058L1321.98 206.279L1324.02 209.721L1675.02 1.72058L1672.98 -1.72058Z" fill="#1C3D5B"/>
<path d="M1382.06 207.504C1381.79 208.574 1382.43 209.664 1383.5 209.938L1400.94 214.399C1402.01 214.672 1403.1 214.027 1403.38 212.957C1403.65 211.887 1403 210.797 1401.93 210.523L1386.43 206.558L1390.4 191.057C1390.67 189.987 1390.03 188.898 1388.96 188.624C1387.89 188.35 1386.8 188.996 1386.52 190.066L1382.06 207.504ZM1733.98 -1.72058L1382.98 206.279L1385.02 209.721L1736.02 1.72058L1733.98 -1.72058Z" fill="#1C3D5B"/>
<path d="M1424.06 225.504C1423.79 226.574 1424.43 227.664 1425.5 227.938L1442.94 232.399C1444.01 232.672 1445.1 232.027 1445.38 230.957C1445.65 229.887 1445 228.797 1443.93 228.523L1428.43 224.558L1432.4 209.057C1432.67 207.987 1432.03 206.898 1430.96 206.624C1429.89 206.35 1428.8 206.996 1428.52 208.066L1424.06 225.504ZM1775.98 16.2794L1424.98 224.279L1427.02 227.721L1778.02 19.7206L1775.98 16.2794Z" fill="#1C3D5B"/>
<path d="M1424.06 262.504C1423.79 263.574 1424.43 264.664 1425.5 264.938L1442.94 269.399C1444.01 269.672 1445.1 269.027 1445.38 267.957C1445.65 266.887 1445 265.797 1443.93 265.523L1428.43 261.558L1432.4 246.057C1432.67 244.987 1432.03 243.898 1430.96 243.624C1429.89 243.35 1428.8 243.996 1428.52 245.066L1424.06 262.504ZM1775.98 53.2794L1424.98 261.279L1427.02 264.721L1778.02 56.7206L1775.98 53.2794Z" fill="#1C3D5B"/>
<path d="M518.8 247.5C515.3 247.5 512.267 246.883 509.7 245.65C507.167 244.383 505.217 242.617 503.85 240.35C502.483 238.083 501.8 235.483 501.8 232.55C501.8 228.617 502.7 225.05 504.5 221.85C506.3 218.65 508.833 216.133 512.1 214.3C515.367 212.433 519.117 211.5 523.35 211.5C526.383 211.5 529.05 212 531.35 213C533.683 214 535.45 215.45 536.65 217.35L531.95 221.3C529.983 218.567 526.967 217.2 522.9 217.2C520 217.2 517.45 217.867 515.25 219.2C513.05 220.533 511.35 222.35 510.15 224.65C508.95 226.917 508.35 229.417 508.35 232.15C508.35 235.117 509.3 237.467 511.2 239.2C513.1 240.933 515.8 241.8 519.3 241.8C523.333 241.8 526.65 240.45 529.25 237.75L533.05 241.85C531.383 243.75 529.333 245.167 526.9 246.1C524.467 247.033 521.767 247.5 518.8 247.5ZM556.628 220C559.628 220 561.995 220.783 563.728 222.35C565.495 223.917 566.378 226.15 566.378 229.05C566.378 229.85 566.261 230.9 566.028 232.2L563.078 247H556.828L559.728 232.35C559.861 231.683 559.928 231 559.928 230.3C559.928 227.067 558.145 225.45 554.578 225.45C552.278 225.45 550.378 226.1 548.878 227.4C547.378 228.667 546.361 230.583 545.828 233.15L543.028 247H536.778L544.178 209.9H550.428L547.828 222.95C550.128 220.983 553.061 220 556.628 220ZM599.201 231.7C599.201 233 599.067 234.267 598.801 235.5H577.601C577.701 239.867 580.267 242.05 585.301 242.05C586.834 242.05 588.267 241.817 589.601 241.35C590.934 240.85 592.067 240.167 593.001 239.3L595.601 243.65C594.234 244.883 592.584 245.817 590.651 246.45C588.751 247.05 586.751 247.35 584.651 247.35C581.984 247.35 579.651 246.867 577.651 245.9C575.684 244.933 574.167 243.567 573.101 241.8C572.034 240 571.501 237.933 571.501 235.6C571.501 232.633 572.151 229.967 573.451 227.6C574.784 225.2 576.617 223.333 578.951 222C581.317 220.667 583.967 220 586.901 220C590.634 220 593.617 221.05 595.851 223.15C598.084 225.217 599.201 228.067 599.201 231.7ZM586.601 225C584.501 225 582.701 225.567 581.201 226.7C579.734 227.833 578.717 229.383 578.151 231.35H593.451C593.484 229.35 592.867 227.8 591.601 226.7C590.367 225.567 588.701 225 586.601 225ZM615.558 247.35C612.924 247.35 610.608 246.867 608.608 245.9C606.641 244.9 605.124 243.517 604.058 241.75C602.991 239.983 602.458 237.933 602.458 235.6C602.458 232.633 603.141 229.967 604.508 227.6C605.874 225.233 607.758 223.383 610.158 222.05C612.591 220.683 615.358 220 618.458 220C621.158 220 623.474 220.533 625.408 221.6C627.374 222.633 628.891 224.183 629.958 226.25L624.608 229C623.374 226.533 621.158 225.3 617.958 225.3C616.191 225.3 614.608 225.733 613.208 226.6C611.841 227.433 610.758 228.617 609.958 230.15C609.158 231.65 608.758 233.367 608.758 235.3C608.758 237.4 609.374 239.05 610.608 240.25C611.841 241.417 613.591 242 615.858 242C617.391 242 618.774 241.7 620.008 241.1C621.241 240.467 622.291 239.533 623.158 238.3L627.758 241.4C626.524 243.267 624.824 244.733 622.658 245.8C620.491 246.833 618.124 247.35 615.558 247.35ZM649.266 231.75L658.666 247H651.416L644.266 235.45L638.666 239.95L637.266 247H631.016L638.416 209.9H644.666L640.266 232.05L654.916 220.3H663.416L649.266 231.75ZM689.285 247.35C686.685 247.35 684.401 246.867 682.435 245.9C680.501 244.9 679.001 243.517 677.935 241.75C676.868 239.983 676.335 237.933 676.335 235.6C676.335 232.633 677.001 229.967 678.335 227.6C679.701 225.233 681.585 223.383 683.985 222.05C686.418 220.683 689.151 220 692.185 220C694.785 220 697.068 220.483 699.035 221.45C701.001 222.417 702.518 223.783 703.585 225.55C704.651 227.317 705.185 229.367 705.185 231.7C705.185 234.667 704.501 237.333 703.135 239.7C701.768 242.067 699.868 243.933 697.435 245.3C695.035 246.667 692.318 247.35 689.285 247.35ZM689.685 242C691.451 242 693.018 241.583 694.385 240.75C695.785 239.883 696.885 238.7 697.685 237.2C698.485 235.667 698.885 233.933 698.885 232C698.885 229.9 698.268 228.267 697.035 227.1C695.801 225.9 694.068 225.3 691.835 225.3C690.068 225.3 688.485 225.733 687.085 226.6C685.718 227.433 684.635 228.617 683.835 230.15C683.035 231.65 682.635 233.367 682.635 235.3C682.635 237.4 683.251 239.05 684.485 240.25C685.718 241.417 687.451 242 689.685 242ZM739.511 220.3L734.161 247H728.211L728.811 244.05C726.411 246.25 723.395 247.35 719.761 247.35C716.828 247.35 714.478 246.567 712.711 245C710.978 243.4 710.111 241.167 710.111 238.3C710.111 237.233 710.228 236.167 710.461 235.1L713.411 220.3H719.661L716.711 234.95C716.578 235.617 716.511 236.3 716.511 237C716.511 238.567 716.945 239.767 717.811 240.6C718.711 241.433 720.045 241.85 721.811 241.85C724.078 241.85 725.961 241.217 727.461 239.95C728.961 238.65 729.961 236.717 730.461 234.15L733.261 220.3H739.511ZM751.145 238.05C751.078 238.583 751.045 238.967 751.045 239.2C751.045 241.2 752.095 242.2 754.195 242.2C755.495 242.2 756.661 241.85 757.695 241.15L758.795 245.75C757.095 246.817 754.945 247.35 752.345 247.35C750.045 247.35 748.195 246.717 746.795 245.45C745.395 244.183 744.695 242.433 744.695 240.2C744.695 239.467 744.761 238.767 744.895 238.1L747.445 225.5H743.095L744.095 220.5H748.445L749.645 214.4H755.895L754.645 220.5H761.845L760.845 225.5H753.645L751.145 238.05ZM790.554 247.35C787.954 247.35 785.671 246.867 783.704 245.9C781.771 244.9 780.271 243.517 779.204 241.75C778.138 239.983 777.604 237.933 777.604 235.6C777.604 232.633 778.271 229.967 779.604 227.6C780.971 225.233 782.854 223.383 785.254 222.05C787.688 220.683 790.421 220 793.454 220C796.054 220 798.338 220.483 800.304 221.45C802.271 222.417 803.788 223.783 804.854 225.55C805.921 227.317 806.454 229.367 806.454 231.7C806.454 234.667 805.771 237.333 804.404 239.7C803.038 242.067 801.138 243.933 798.704 245.3C796.304 246.667 793.588 247.35 790.554 247.35ZM790.954 242C792.721 242 794.288 241.583 795.654 240.75C797.054 239.883 798.154 238.7 798.954 237.2C799.754 235.667 800.154 233.933 800.154 232C800.154 229.9 799.538 228.267 798.304 227.1C797.071 225.9 795.338 225.3 793.104 225.3C791.338 225.3 789.754 225.733 788.354 226.6C786.988 227.433 785.904 228.617 785.104 230.15C784.304 231.65 783.904 233.367 783.904 235.3C783.904 237.4 784.521 239.05 785.754 240.25C786.988 241.417 788.721 242 790.954 242ZM840.781 220.3L835.431 247H829.481L830.081 244.05C827.681 246.25 824.664 247.35 821.031 247.35C818.098 247.35 815.748 246.567 813.981 245C812.248 243.4 811.381 241.167 811.381 238.3C811.381 237.233 811.498 236.167 811.731 235.1L814.681 220.3H820.931L817.981 234.95C817.848 235.617 817.781 236.3 817.781 237C817.781 238.567 818.214 239.767 819.081 240.6C819.981 241.433 821.314 241.85 823.081 241.85C825.348 241.85 827.231 241.217 828.731 239.95C830.231 238.65 831.231 236.717 831.731 234.15L834.531 220.3H840.781ZM854.164 223.75C855.331 222.383 856.747 221.417 858.414 220.85C860.114 220.283 862.131 220 864.464 220L863.314 225.95C862.747 225.85 862.231 225.8 861.764 225.8C856.664 225.8 853.581 228.483 852.514 233.85L849.864 247H843.614L848.914 220.3H854.864L854.164 223.75ZM906.379 231.7C906.379 233 906.245 234.267 905.979 235.5H884.779C884.879 239.867 887.445 242.05 892.479 242.05C894.012 242.05 895.445 241.817 896.779 241.35C898.112 240.85 899.245 240.167 900.179 239.3L902.779 243.65C901.412 244.883 899.762 245.817 897.829 246.45C895.929 247.05 893.929 247.35 891.829 247.35C889.162 247.35 886.829 246.867 884.829 245.9C882.862 244.933 881.345 243.567 880.279 241.8C879.212 240 878.679 237.933 878.679 235.6C878.679 232.633 879.329 229.967 880.629 227.6C881.962 225.2 883.795 223.333 886.129 222C888.495 220.667 891.145 220 894.079 220C897.812 220 900.795 221.05 903.029 223.15C905.262 225.217 906.379 228.067 906.379 231.7ZM893.779 225C891.679 225 889.879 225.567 888.379 226.7C886.912 227.833 885.895 229.383 885.329 231.35H900.629C900.662 229.35 900.045 227.8 898.779 226.7C897.545 225.567 895.879 225 893.779 225ZM939.247 220.3L922.497 247H916.047L909.897 220.3H916.047L920.497 240.15L932.947 220.3H939.247ZM965.021 231.7C965.021 233 964.888 234.267 964.621 235.5H943.421C943.521 239.867 946.088 242.05 951.121 242.05C952.654 242.05 954.088 241.817 955.421 241.35C956.754 240.85 957.888 240.167 958.821 239.3L961.421 243.65C960.054 244.883 958.404 245.817 956.471 246.45C954.571 247.05 952.571 247.35 950.471 247.35C947.804 247.35 945.471 246.867 943.471 245.9C941.504 244.933 939.988 243.567 938.921 241.8C937.854 240 937.321 237.933 937.321 235.6C937.321 232.633 937.971 229.967 939.271 227.6C940.604 225.2 942.438 223.333 944.771 222C947.138 220.667 949.788 220 952.721 220C956.454 220 959.438 221.05 961.671 223.15C963.904 225.217 965.021 228.067 965.021 231.7ZM952.421 225C950.321 225 948.521 225.567 947.021 226.7C945.554 227.833 944.538 229.383 943.971 231.35H959.271C959.304 229.35 958.688 227.8 957.421 226.7C956.188 225.567 954.521 225 952.421 225ZM987.878 220C990.878 220 993.245 220.783 994.978 222.35C996.745 223.917 997.628 226.133 997.628 229C997.628 229.8 997.511 230.867 997.278 232.2L994.328 247H988.078L990.978 232.35C991.111 231.683 991.178 231 991.178 230.3C991.178 227.067 989.395 225.45 985.828 225.45C983.528 225.45 981.628 226.1 980.128 227.4C978.628 228.667 977.611 230.583 977.078 233.15L974.278 247H968.028L973.328 220.3H979.278L978.678 223.25C981.078 221.083 984.145 220 987.878 220ZM1011.06 238.05C1010.99 238.583 1010.96 238.967 1010.96 239.2C1010.96 241.2 1012.01 242.2 1014.11 242.2C1015.41 242.2 1016.57 241.85 1017.61 241.15L1018.71 245.75C1017.01 246.817 1014.86 247.35 1012.26 247.35C1009.96 247.35 1008.11 246.717 1006.71 245.45C1005.31 244.183 1004.61 242.433 1004.61 240.2C1004.61 239.467 1004.67 238.767 1004.81 238.1L1007.36 225.5H1003.01L1004.01 220.5H1008.36L1009.56 214.4H1015.81L1014.56 220.5H1021.76L1020.76 225.5H1013.56L1011.06 238.05ZM1032.55 247.35C1030.28 247.35 1028.11 247.083 1026.05 246.55C1024.01 245.983 1022.43 245.283 1021.3 244.45L1023.9 239.65C1025 240.45 1026.38 241.083 1028.05 241.55C1029.71 242.017 1031.43 242.25 1033.2 242.25C1035.2 242.25 1036.7 241.983 1037.7 241.45C1038.73 240.883 1039.25 240.083 1039.25 239.05C1039.25 238.25 1038.81 237.667 1037.95 237.3C1037.11 236.933 1035.78 236.55 1033.95 236.15C1032.05 235.783 1030.48 235.4 1029.25 235C1028.05 234.567 1027 233.883 1026.1 232.95C1025.23 231.983 1024.8 230.667 1024.8 229C1024.8 226.233 1025.95 224.05 1028.25 222.45C1030.58 220.817 1033.66 220 1037.5 220C1039.33 220 1041.11 220.217 1042.85 220.65C1044.58 221.05 1046 221.6 1047.1 222.3L1044.8 227.1C1043.7 226.4 1042.45 225.883 1041.05 225.55C1039.68 225.217 1038.3 225.05 1036.9 225.05C1034.93 225.05 1033.43 225.35 1032.4 225.95C1031.4 226.55 1030.9 227.333 1030.9 228.3C1030.9 229.167 1031.33 229.8 1032.2 230.2C1033.1 230.567 1034.48 230.95 1036.35 231.35C1038.21 231.717 1039.75 232.117 1040.95 232.55C1042.15 232.95 1043.18 233.617 1044.05 234.55C1044.91 235.483 1045.35 236.75 1045.35 238.35C1045.35 241.217 1044.18 243.433 1041.85 245C1039.51 246.567 1036.41 247.35 1032.55 247.35ZM1055.28 212H1062.73L1056.83 235.4H1051.88L1055.28 212ZM1052.53 247.35C1051.43 247.35 1050.51 247 1049.78 246.3C1049.08 245.6 1048.73 244.75 1048.73 243.75C1048.73 242.55 1049.13 241.567 1049.93 240.8C1050.73 240 1051.71 239.6 1052.88 239.6C1053.98 239.6 1054.88 239.95 1055.58 240.65C1056.31 241.317 1056.68 242.167 1056.68 243.2C1056.68 244.367 1056.28 245.35 1055.48 246.15C1054.68 246.95 1053.7 247.35 1052.53 247.35Z" fill="#3F813E"/>
<path d="M450.5 104V174H434.3V145.3H402.5V174H386.3V104H402.5V131.6H434.3V104H450.5ZM487.662 119.4C495.995 119.4 502.395 121.4 506.862 125.4C511.328 129.333 513.562 135.3 513.562 143.3V174H498.962V167.3C496.028 172.3 490.562 174.8 482.562 174.8C478.428 174.8 474.828 174.1 471.762 172.7C468.762 171.3 466.462 169.367 464.862 166.9C463.262 164.433 462.462 161.633 462.462 158.5C462.462 153.5 464.328 149.567 468.062 146.7C471.862 143.833 477.695 142.4 485.562 142.4H497.962C497.962 139 496.928 136.4 494.862 134.6C492.795 132.733 489.695 131.8 485.562 131.8C482.695 131.8 479.862 132.267 477.062 133.2C474.328 134.067 471.995 135.267 470.062 136.8L464.462 125.9C467.395 123.833 470.895 122.233 474.962 121.1C479.095 119.967 483.328 119.4 487.662 119.4ZM486.462 164.3C489.128 164.3 491.495 163.7 493.562 162.5C495.628 161.233 497.095 159.4 497.962 157V151.5H487.262C480.862 151.5 477.662 153.6 477.662 157.8C477.662 159.8 478.428 161.4 479.962 162.6C481.562 163.733 483.728 164.3 486.462 164.3ZM554.266 174.8C548.533 174.8 543.366 173.633 538.766 171.3C534.233 168.9 530.666 165.6 528.066 161.4C525.533 157.2 524.266 152.433 524.266 147.1C524.266 141.767 525.533 137 528.066 132.8C530.666 128.6 534.233 125.333 538.766 123C543.366 120.6 548.533 119.4 554.266 119.4C559.933 119.4 564.866 120.6 569.066 123C573.333 125.333 576.433 128.7 578.366 133.1L566.266 139.6C563.466 134.667 559.433 132.2 554.166 132.2C550.1 132.2 546.733 133.533 544.066 136.2C541.4 138.867 540.066 142.5 540.066 147.1C540.066 151.7 541.4 155.333 544.066 158C546.733 160.667 550.1 162 554.166 162C559.5 162 563.533 159.533 566.266 154.6L578.366 161.2C576.433 165.467 573.333 168.8 569.066 171.2C564.866 173.6 559.933 174.8 554.266 174.8ZM610.058 152.9L602.558 160.3V174H586.958V99.8H602.558V141.8L625.358 120.2H643.958L621.558 143L645.958 174H627.058L610.058 152.9ZM715.994 171.4C714.46 172.533 712.56 173.4 710.294 174C708.094 174.533 705.76 174.8 703.294 174.8C696.894 174.8 691.927 173.167 688.394 169.9C684.927 166.633 683.194 161.833 683.194 155.5V133.4H674.894V121.4H683.194V108.3H698.794V121.4H712.194V133.4H698.794V155.3C698.794 157.567 699.36 159.333 700.494 160.6C701.694 161.8 703.36 162.4 705.494 162.4C707.96 162.4 710.06 161.733 711.794 160.4L715.994 171.4ZM757.451 119.4C764.117 119.4 769.484 121.4 773.551 125.4C777.684 129.4 779.751 135.333 779.751 143.2V174H764.151V145.6C764.151 141.333 763.217 138.167 761.351 136.1C759.484 133.967 756.784 132.9 753.251 132.9C749.317 132.9 746.184 134.133 743.851 136.6C741.517 139 740.351 142.6 740.351 147.4V174H724.751V99.8H740.351V125.8C742.417 123.733 744.917 122.167 747.851 121.1C750.784 119.967 753.984 119.4 757.451 119.4ZM847.177 147.3C847.177 147.5 847.077 148.9 846.877 151.5H806.177C806.911 154.833 808.644 157.467 811.377 159.4C814.111 161.333 817.511 162.3 821.577 162.3C824.377 162.3 826.844 161.9 828.977 161.1C831.177 160.233 833.211 158.9 835.077 157.1L843.377 166.1C838.311 171.9 830.911 174.8 821.177 174.8C815.111 174.8 809.744 173.633 805.077 171.3C800.411 168.9 796.811 165.6 794.277 161.4C791.744 157.2 790.477 152.433 790.477 147.1C790.477 141.833 791.711 137.1 794.177 132.9C796.711 128.633 800.144 125.333 804.477 123C808.877 120.6 813.777 119.4 819.177 119.4C824.444 119.4 829.211 120.533 833.477 122.8C837.744 125.067 841.077 128.333 843.477 132.6C845.944 136.8 847.177 141.7 847.177 147.3ZM819.277 131.2C815.744 131.2 812.777 132.2 810.377 134.2C807.977 136.2 806.511 138.933 805.977 142.4H832.477C831.944 139 830.477 136.3 828.077 134.3C825.677 132.233 822.744 131.2 819.277 131.2ZM951.184 104V174H937.884L902.984 131.5V174H886.984V104H900.384L935.184 146.5V104H951.184ZM992.245 174.8C986.579 174.8 981.479 173.633 976.945 171.3C972.479 168.9 968.979 165.6 966.445 161.4C963.912 157.2 962.645 152.433 962.645 147.1C962.645 141.767 963.912 137 966.445 132.8C968.979 128.6 972.479 125.333 976.945 123C981.479 120.6 986.579 119.4 992.245 119.4C997.912 119.4 1002.98 120.6 1007.45 123C1011.91 125.333 1015.41 128.6 1017.95 132.8C1020.48 137 1021.75 141.767 1021.75 147.1C1021.75 152.433 1020.48 157.2 1017.95 161.4C1015.41 165.6 1011.91 168.9 1007.45 171.3C1002.98 173.633 997.912 174.8 992.245 174.8ZM992.245 162C996.245 162 999.512 160.667 1002.05 158C1004.65 155.267 1005.95 151.633 1005.95 147.1C1005.95 142.567 1004.65 138.967 1002.05 136.3C999.512 133.567 996.245 132.2 992.245 132.2C988.245 132.2 984.945 133.567 982.345 136.3C979.745 138.967 978.445 142.567 978.445 147.1C978.445 151.633 979.745 155.267 982.345 158C984.945 160.667 988.245 162 992.245 162ZM1047.07 127.3C1048.94 124.7 1051.44 122.733 1054.57 121.4C1057.77 120.067 1061.44 119.4 1065.57 119.4V133.8C1063.84 133.667 1062.67 133.6 1062.07 133.6C1057.61 133.6 1054.11 134.867 1051.57 137.4C1049.04 139.867 1047.77 143.6 1047.77 148.6V174H1032.17V120.2H1047.07V127.3ZM1111.4 171.4C1109.87 172.533 1107.97 173.4 1105.7 174C1103.5 174.533 1101.17 174.8 1098.7 174.8C1092.3 174.8 1087.34 173.167 1083.8 169.9C1080.34 166.633 1078.6 161.833 1078.6 155.5V133.4H1070.3V121.4H1078.6V108.3H1094.2V121.4H1107.6V133.4H1094.2V155.3C1094.2 157.567 1094.77 159.333 1095.9 160.6C1097.1 161.8 1098.77 162.4 1100.9 162.4C1103.37 162.4 1105.47 161.733 1107.2 160.4L1111.4 171.4ZM1152.86 119.4C1159.53 119.4 1164.89 121.4 1168.96 125.4C1173.09 129.4 1175.16 135.333 1175.16 143.2V174H1159.56V145.6C1159.56 141.333 1158.63 138.167 1156.76 136.1C1154.89 133.967 1152.19 132.9 1148.66 132.9C1144.73 132.9 1141.59 134.133 1139.26 136.6C1136.93 139 1135.76 142.6 1135.76 147.4V174H1120.16V99.8H1135.76V125.8C1137.83 123.733 1140.33 122.167 1143.26 121.1C1146.19 119.967 1149.39 119.4 1152.86 119.4Z" fill="#1C3D5B"/>
</g>
<defs>
<clipPath id="clip0_10_51">
<rect width="1512" height="372" fill="white"/>
</clipPath>
</defs>
</svg>
